<svg xmlns="http://www.w3.org/2000/svg" version="1.1" xmlns:xlink="http://www.w3.org/1999/xlink" xmlns:svgjs="http://svgjs.com/svgjs" width="1440" height="560" preserveAspectRatio="none" viewBox="0 0 1440 560"><g mask="url(&quot;#SvgjsMask1000&quot;)" fill="none"><rect width="1440" height="560" x="0" y="0" fill="#0e2a47"></rect><path d="M-88 383.94L-88 383.94" stroke="#132e65" stroke-width="1.5"></path><path d="M-88 383.94L-89.54 545.4" stroke="#132e65" stroke-width="1.5"></path><path d="M-88 383.94L83.61 355.86" stroke="#132e65" stroke-width="1.5"></path><path d="M-89.54 545.4L-89.54 545.4" stroke="#132e65" stroke-width="1.5"></path><path d="M-89.54 545.4L42.23 697.85" stroke="#132e65" stroke-width="1.5"></path><path d="M-89.54 545.4L83.61 355.86" stroke="#132e65" stroke-width="1.5"></path><path d="M83.61 355.86L83.61 355.86" stroke="#132e65" stroke-width="1.5"></path><path d="M83.61 355.86L234.02 393.29" stroke="#132e65" stroke-width="1.5"></path><path d="M83.61 355.86L226.73 559.04" stroke="#132e65" stroke-width="1.5"></path><path d="M83.61 355.86L376.92 389.06" stroke="#132e65" stroke-width="1.5"></path><path d="M83.61 355.86L42.23 697.85" stroke="#132e65" stroke-width="1.5"></path><path d="M42.23 697.85L42.23 697.85" stroke="#132e65" stroke-width="1.5"></path><path d="M42.23 697.85L199.87 698.74" stroke="#132e65" stroke-width="1.5"></path><path d="M234.02 393.29L234.02 393.29" stroke="#132e65" stroke-width="1.5"></path><path d="M234.02 393.29L376.92 389.06" stroke="#132e65" stroke-width="1.5"></path><path d="M234.02 393.29L226.73 559.04" stroke="#132e65" stroke-width="1.5"></path><path d="M234.02 393.29L370.69 553.31" stroke="#132e65" stroke-width="1.5"></path><path d="M226.73 559.04L226.73 559.04" stroke="#132e65" stroke-width="1.5"></path><path d="M226.73 559.04L199.87 698.74" stroke="#132e65" stroke-width="1.5"></path><path d="M226.73 559.04L370.69 553.31" stroke="#132e65" stroke-width="1.5"></path><path d="M226.73 559.04L355.39 708.64" stroke="#132e65" stroke-width="1.5"></path><path d="M226.73 559.04L376.92 389.06" stroke="#132e65" stroke-width="1.5"></path><path d="M226.73 559.04L42.23 697.85" stroke="#132e65" stroke-width="1.5"></path><path d="M199.87 698.74L199.87 698.74" stroke="#132e65" stroke-width="1.5"></path><path d="M199.87 698.74L355.39 708.64" stroke="#132e65" stroke-width="1.5"></path><path d="M199.87 698.74L370.69 553.31" stroke="#132e65" stroke-width="1.5"></path><path d="M199.87 698.74L504.53 662.62" stroke="#132e65" stroke-width="1.5"></path><path d="M376.92 389.06L376.92 389.06" stroke="#132e65" stroke-width="1.5"></path><path d="M376.92 389.06L370.69 553.31" stroke="#132e65" stroke-width="1.5"></path><path d="M376.92 389.06L551.52 349.78" stroke="#132e65" stroke-width="1.5"></path><path d="M376.92 389.06L540.75 516.4" stroke="#132e65" stroke-width="1.5"></path><path d="M370.69 553.31L370.69 553.31" stroke="#132e65" stroke-width="1.5"></path><path d="M370.69 553.31L355.39 708.64" stroke="#132e65" stroke-width="1.5"></path><path d="M370.69 553.31L504.53 662.62" stroke="#132e65" stroke-width="1.5"></path><path d="M355.39 708.64L355.39 708.64" stroke="#132e65" stroke-width="1.5"></path><path d="M355.39 708.64L504.53 662.62" stroke="#132e65" stroke-width="1.5"></path><path d="M551.52 349.78L551.52 349.78" stroke="#132e65" stroke-width="1.5"></path><path d="M551.52 349.78L710.5 338.97" stroke="#132e65" stroke-width="1.5"></path><path d="M551.52 349.78L540.75 516.4" stroke="#132e65" stroke-width="1.5"></path><path d="M551.52 349.78L692.82 257.86" stroke="#132e65" stroke-width="1.5"></path><path d="M551.52 349.78L700.88 491.11" stroke="#132e65" stroke-width="1.5"></path><path d="M540.75 516.4L540.75 516.4" stroke="#132e65" stroke-width="1.5"></path><path d="M540.75 516.4L504.53 662.62" stroke="#132e65" stroke-width="1.5"></path><path d="M540.75 516.4L700.88 491.11" stroke="#132e65" stroke-width="1.5"></path><path d="M504.53 662.62L504.53 662.62" stroke="#132e65" stroke-width="1.5"></path><path d="M692.82 257.86L692.82 257.86" stroke="#132e65" stroke-width="1.5"></path><path d="M692.82 257.86L710.5 338.97" stroke="#132e65" stroke-width="1.5"></path><path d="M692.82 257.86L797.3 191.8" stroke="#132e65" stroke-width="1.5"></path><path d="M692.82 257.86L818.44 360.18" stroke="#132e65" stroke-width="1.5"></path><path d="M692.82 257.86L700.88 491.11" stroke="#132e65" stroke-width="1.5"></path><path d="M710.5 338.97L710.5 338.97" stroke="#132e65" stroke-width="1.5"></path><path d="M710.5 338.97L818.44 360.18" stroke="#132e65" stroke-width="1.5"></path><path d="M710.5 338.97L700.88 491.11" stroke="#132e65" stroke-width="1.5"></path><path d="M700.88 491.11L700.88 491.11" stroke="#132e65" stroke-width="1.5"></path><path d="M700.88 491.11L855.14 496.8" stroke="#132e65" stroke-width="1.5"></path><path d="M700.88 491.11L818.44 360.18" stroke="#132e65" stroke-width="1.5"></path><path d="M706.19 699.88L706.19 699.88" stroke="#132e65" stroke-width="1.5"></path><path d="M706.19 699.88L811.94 691.81" stroke="#132e65" stroke-width="1.5"></path><path d="M706.19 699.88L504.53 662.62" stroke="#132e65" stroke-width="1.5"></path><path d="M706.19 699.88L700.88 491.11" stroke="#132e65" stroke-width="1.5"></path><path d="M706.19 699.88L540.75 516.4" stroke="#132e65" stroke-width="1.5"></path><path d="M706.19 699.88L855.14 496.8" stroke="#132e65" stroke-width="1.5"></path><path d="M706.19 699.88L966.86 706.02" stroke="#132e65" stroke-width="1.5"></path><path d="M797.3 191.8L797.3 191.8" stroke="#132e65" stroke-width="1.5"></path><path d="M797.3 191.8L818.44 360.18" stroke="#132e65" stroke-width="1.5"></path><path d="M797.3 191.8L710.5 338.97" stroke="#132e65" stroke-width="1.5"></path><path d="M797.3 191.8L981.26 204.92" stroke="#132e65" stroke-width="1.5"></path><path d="M797.3 191.8L976.24 110.5" stroke="#132e65" stroke-width="1.5"></path><path d="M818.44 360.18L818.44 360.18" stroke="#132e65" stroke-width="1.5"></path><path d="M818.44 360.18L938.32 412.48" stroke="#132e65" stroke-width="1.5"></path><path d="M818.44 360.18L855.14 496.8" stroke="#132e65" stroke-width="1.5"></path><path d="M855.14 496.8L855.14 496.8" stroke="#132e65" stroke-width="1.5"></path><path d="M855.14 496.8L938.32 412.48" stroke="#132e65" stroke-width="1.5"></path><path d="M855.14 496.8L979.03 545.5" stroke="#132e65" stroke-width="1.5"></path><path d="M811.94 691.81L811.94 691.81" stroke="#132e65" stroke-width="1.5"></path><path d="M811.94 691.81L966.86 706.02" stroke="#132e65" stroke-width="1.5"></path><path d="M811.94 691.81L855.14 496.8" stroke="#132e65" stroke-width="1.5"></path><path d="M960.7 -54.91L960.7 -54.91" stroke="#132e65" stroke-width="1.5"></path><path d="M960.7 -54.91L976.24 110.5" stroke="#132e65" stroke-width="1.5"></path><path d="M960.7 -54.91L1144.63 -72.06" stroke="#132e65" stroke-width="1.5"></path><path d="M960.7 -54.91L1100.03 87.88" stroke="#132e65" stroke-width="1.5"></path><path d="M960.7 -54.91L981.26 204.92" stroke="#132e65" stroke-width="1.5"></path><path d="M960.7 -54.91L797.3 191.8" stroke="#132e65" stroke-width="1.5"></path><path d="M976.24 110.5L976.24 110.5" stroke="#132e65" stroke-width="1.5"></path><path d="M976.24 110.5L981.26 204.92" stroke="#132e65" stroke-width="1.5"></path><path d="M976.24 110.5L1100.03 87.88" stroke="#132e65" stroke-width="1.5"></path><path d="M976.24 110.5L1102.29 226.85" stroke="#132e65" stroke-width="1.5"></path><path d="M981.26 204.92L981.26 204.92" stroke="#132e65" stroke-width="1.5"></path><path d="M981.26 204.92L1102.29 226.85" stroke="#132e65" stroke-width="1.5"></path><path d="M981.26 204.92L1100.03 87.88" stroke="#132e65" stroke-width="1.5"></path><path d="M938.32 412.48L938.32 412.48" stroke="#132e65" stroke-width="1.5"></path><path d="M979.03 545.5L979.03 545.5" stroke="#132e65" stroke-width="1.5"></path><path d="M979.03 545.5L938.32 412.48" stroke="#132e65" stroke-width="1.5"></path><path d="M979.03 545.5L966.86 706.02" stroke="#132e65" stroke-width="1.5"></path><path d="M966.86 706.02L966.86 706.02" stroke="#132e65" stroke-width="1.5"></path><path d="M966.86 706.02L1160.76 671.34" stroke="#132e65" stroke-width="1.5"></path><path d="M966.86 706.02L855.14 496.8" stroke="#132e65" stroke-width="1.5"></path><path d="M1144.63 -72.06L1144.63 -72.06" stroke="#132e65" stroke-width="1.5"></path><path d="M1144.63 -72.06L1293.38 -61.89" stroke="#132e65" stroke-width="1.5"></path><path d="M1144.63 -72.06L1100.03 87.88" stroke="#132e65" stroke-width="1.5"></path><path d="M1100.03 87.88L1100.03 87.88" stroke="#132e65" stroke-width="1.5"></path><path d="M1102.29 226.85L1102.29 226.85" stroke="#132e65" stroke-width="1.5"></path><path d="M1102.29 226.85L1100.03 87.88" stroke="#132e65" stroke-width="1.5"></path><path d="M1102.29 226.85L1290.08 249.44" stroke="#132e65" stroke-width="1.5"></path><path d="M1102.29 226.85L1237.64 78.69" stroke="#132e65" stroke-width="1.5"></path><path d="M1102.29 226.85L1253.51 370.65" stroke="#132e65" stroke-width="1.5"></path><path d="M1154.62 496.76L1154.62 496.76" stroke="#132e65" stroke-width="1.5"></path><path d="M1154.62 496.76L1273.73 508.36" stroke="#132e65" stroke-width="1.5"></path><path d="M1154.62 496.76L1253.51 370.65" stroke="#132e65" stroke-width="1.5"></path><path d="M1154.62 496.76L1160.76 671.34" stroke="#132e65" stroke-width="1.5"></path><path d="M1154.62 496.76L979.03 545.5" stroke="#132e65" stroke-width="1.5"></path><path d="M1160.76 671.34L1160.76 671.34" stroke="#132e65" stroke-width="1.5"></path><path d="M1160.76 671.34L1262.12 650.71" stroke="#132e65" stroke-width="1.5"></path><path d="M1160.76 671.34L1273.73 508.36" stroke="#132e65" stroke-width="1.5"></path><path d="M1160.76 671.34L979.03 545.5" stroke="#132e65" stroke-width="1.5"></path><path d="M1160.76 671.34L1425.5 640.05" stroke="#132e65" stroke-width="1.5"></path><path d="M1293.38 -61.89L1293.38 -61.89" stroke="#132e65" stroke-width="1.5"></path><path d="M1293.38 -61.89L1439.2 -41.12" stroke="#132e65" stroke-width="1.5"></path><path d="M1293.38 -61.89L1237.64 78.69" stroke="#132e65" stroke-width="1.5"></path><path d="M1237.64 78.69L1237.64 78.69" stroke="#132e65" stroke-width="1.5"></path><path d="M1237.64 78.69L1100.03 87.88" stroke="#132e65" stroke-width="1.5"></path><path d="M1237.64 78.69L1144.63 -72.06" stroke="#132e65" stroke-width="1.5"></path><path d="M1237.64 78.69L1290.08 249.44" stroke="#132e65" stroke-width="1.5"></path><path d="M1237.64 78.69L1431.98 90.94" stroke="#132e65" stroke-width="1.5"></path><path d="M1290.08 249.44L1290.08 249.44" stroke="#132e65" stroke-width="1.5"></path><path d="M1290.08 249.44L1253.51 370.65" stroke="#132e65" stroke-width="1.5"></path><path d="M1290.08 249.44L1431.52 206.78" stroke="#132e65" stroke-width="1.5"></path><path d="M1290.08 249.44L1389.71 399.5" stroke="#132e65" stroke-width="1.5"></path><path d="M1290.08 249.44L1431.98 90.94" stroke="#132e65" stroke-width="1.5"></path><path d="M1253.51 370.65L1253.51 370.65" stroke="#132e65" stroke-width="1.5"></path><path d="M1253.51 370.65L1273.73 508.36" stroke="#132e65" stroke-width="1.5"></path><path d="M1253.51 370.65L1389.71 399.5" stroke="#132e65" stroke-width="1.5"></path><path d="M1273.73 508.36L1273.73 508.36" stroke="#132e65" stroke-width="1.5"></path><path d="M1273.73 508.36L1412.27 516.92" stroke="#132e65" stroke-width="1.5"></path><path d="M1262.12 650.71L1262.12 650.71" stroke="#132e65" stroke-width="1.5"></path><path d="M1262.12 650.71L1273.73 508.36" stroke="#132e65" stroke-width="1.5"></path><path d="M1439.2 -41.12L1439.2 -41.12" stroke="#132e65" stroke-width="1.5"></path><path d="M1439.2 -41.12L1431.98 90.94" stroke="#132e65" stroke-width="1.5"></path><path d="M1439.2 -41.12L1574.99 106.08" stroke="#132e65" stroke-width="1.5"></path><path d="M1439.2 -41.12L1237.64 78.69" stroke="#132e65" stroke-width="1.5"></path><path d="M1431.98 90.94L1431.98 90.94" stroke="#132e65" stroke-width="1.5"></path><path d="M1431.98 90.94L1431.52 206.78" stroke="#132e65" stroke-width="1.5"></path><path d="M1431.98 90.94L1574.99 106.08" stroke="#132e65" stroke-width="1.5"></path><path d="M1431.52 206.78L1431.52 206.78" stroke="#132e65" stroke-width="1.5"></path><path d="M1431.52 206.78L1574.99 106.08" stroke="#132e65" stroke-width="1.5"></path><path d="M1431.52 206.78L1389.71 399.5" stroke="#132e65" stroke-width="1.5"></path><path d="M1389.71 399.5L1389.71 399.5" stroke="#132e65" stroke-width="1.5"></path><path d="M1389.71 399.5L1412.27 516.92" stroke="#132e65" stroke-width="1.5"></path><path d="M1389.71 399.5L1273.73 508.36" stroke="#132e65" stroke-width="1.5"></path><path d="M1389.71 399.5L1564.15 372.45" stroke="#132e65" stroke-width="1.5"></path><path d="M1412.27 516.92L1412.27 516.92" stroke="#132e65" stroke-width="1.5"></path><path d="M1412.27 516.92L1425.5 640.05" stroke="#132e65" stroke-width="1.5"></path><path d="M1412.27 516.92L1547.07 505.94" stroke="#132e65" stroke-width="1.5"></path><path d="M1412.27 516.92L1262.12 650.71" stroke="#132e65" stroke-width="1.5"></path><path d="M1425.5 640.05L1425.5 640.05" stroke="#132e65" stroke-width="1.5"></path><path d="M1425.5 640.05L1262.12 650.71" stroke="#132e65" stroke-width="1.5"></path><path d="M1425.5 640.05L1547.07 505.94" stroke="#132e65" stroke-width="1.5"></path><path d="M1425.5 640.05L1609.9 654.62" stroke="#132e65" stroke-width="1.5"></path><path d="M1425.5 640.05L1273.73 508.36" stroke="#132e65" stroke-width="1.5"></path><path d="M1574.99 106.08L1574.99 106.08" stroke="#132e65" stroke-width="1.5"></path><path d="M1574.99 106.08L1564.15 372.45" stroke="#132e65" stroke-width="1.5"></path><path d="M1574.99 106.08L1290.08 249.44" stroke="#132e65" stroke-width="1.5"></path><path d="M1564.15 372.45L1564.15 372.45" stroke="#132e65" stroke-width="1.5"></path><path d="M1564.15 372.45L1547.07 505.94" stroke="#132e65" stroke-width="1.5"></path><path d="M1564.15 372.45L1412.27 516.92" stroke="#132e65" stroke-width="1.5"></path><path d="M1564.15 372.45L1431.52 206.78" stroke="#132e65" stroke-width="1.5"></path><path d="M1547.07 505.94L1547.07 505.94" stroke="#132e65" stroke-width="1.5"></path><path d="M1547.07 505.94L1609.9 654.62" stroke="#132e65" stroke-width="1.5"></path><path d="M1547.07 505.94L1389.71 399.5" stroke="#132e65" stroke-width="1.5"></path><path d="M1547.07 505.94L1273.73 508.36" stroke="#132e65" stroke-width="1.5"></path><path d="M1609.9 654.62L1609.9 654.62" stroke="#132e65" stroke-width="1.5"></path><path d="M1609.9 654.62L1412.27 516.92" stroke="#132e65" stroke-width="1.5"></path><circle r="5" cx="-88" cy="383.94" fill="#132e65"></circle><circle r="5" cx="-89.54" cy="545.4" fill="#132e65"></circle><circle r="5" cx="83.61" cy="355.86" fill="#132e65"></circle><circle r="5" cx="42.23" cy="697.85" fill="#132e65"></circle><circle r="5" cx="234.02" cy="393.29" fill="#132e65"></circle><circle r="5" cx="226.73" cy="559.04" fill="#132e65"></circle><circle r="5" cx="199.87" cy="698.74" fill="#132e65"></circle><circle r="5" cx="376.92" cy="389.06" fill="#132e65"></circle><circle r="5" cx="370.69" cy="553.31" fill="#132e65"></circle><circle r="5" cx="355.39" cy="708.64" fill="#132e65"></circle><circle r="5" cx="551.52" cy="349.78" fill="#132e65"></circle><circle r="5" cx="540.75" cy="516.4" fill="#132e65"></circle><circle r="5" cx="504.53" cy="662.62" fill="#132e65"></circle><circle r="5" cx="692.82" cy="257.86" fill="#132e65"></circle><circle r="5" cx="710.5" cy="338.97" fill="#132e65"></circle><circle r="5" cx="700.88" cy="491.11" fill="#132e65"></circle><circle r="5" cx="706.19" cy="699.88" fill="#132e65"></circle><circle r="5" cx="797.3" cy="191.8" fill="#132e65"></circle><circle r="5" cx="818.44" cy="360.18" fill="#132e65"></circle><circle r="5" cx="855.14" cy="496.8" fill="#132e65"></circle><circle r="5" cx="811.94" cy="691.81" fill="#132e65"></circle><circle r="5" cx="960.7" cy="-54.91" fill="#132e65"></circle><circle r="5" cx="976.24" cy="110.5" fill="#132e65"></circle><circle r="5" cx="981.26" cy="204.92" fill="#132e65"></circle><circle r="5" cx="938.32" cy="412.48" fill="#132e65"></circle><circle r="5" cx="979.03" cy="545.5" fill="#132e65"></circle><circle r="5" cx="966.86" cy="706.02" fill="#132e65"></circle><circle r="5" cx="1144.63" cy="-72.06" fill="#132e65"></circle><circle r="5" cx="1100.03" cy="87.88" fill="#132e65"></circle><circle r="5" cx="1102.29" cy="226.85" fill="#132e65"></circle><circle r="5" cx="1154.62" cy="496.76" fill="#132e65"></circle><circle r="5" cx="1160.76" cy="671.34" fill="#132e65"></circle><circle r="5" cx="1293.38" cy="-61.89" fill="#132e65"></circle><circle r="5" cx="1237.64" cy="78.69" fill="#132e65"></circle><circle r="5" cx="1290.08" cy="249.44" fill="#132e65"></circle><circle r="5" cx="1253.51" cy="370.65" fill="#132e65"></circle><circle r="5" cx="1273.73" cy="508.36" fill="#132e65"></circle><circle r="5" cx="1262.12" cy="650.71" fill="#132e65"></circle><circle r="5" cx="1439.2" cy="-41.12" fill="#132e65"></circle><circle r="5" cx="1431.98" cy="90.94" fill="#132e65"></circle><circle r="5" cx="1431.52" cy="206.78" fill="#132e65"></circle><circle r="5" cx="1389.71" cy="399.5" fill="#132e65"></circle><circle r="5" cx="1412.27" cy="516.92" fill="#132e65"></circle><circle r="5" cx="1425.5" cy="640.05" fill="#132e65"></circle><circle r="5" cx="1574.99" cy="106.08" fill="#132e65"></circle><circle r="5" cx="1564.15" cy="372.45" fill="#132e65"></circle><circle r="5" cx="1547.07" cy="505.94" fill="#132e65"></circle><circle r="5" cx="1609.9" cy="654.62" fill="#132e65"></circle><path d="M532.58 685.14L532.58 685.14" stroke="hsl(228.5, 77.2%, 51.5%)" stroke-width="1.5"></path><path d="M532.58 685.14L402.94 712.45" stroke="hsl(228.5, 77.2%, 51.5%)" stroke-width="1.5"></path><path d="M532.58 685.14L691.05 706.22" stroke="hsl(228.5, 77.2%, 51.5%)" stroke-width="1.5"></path><path d="M532.58 685.14L670.61 518.03" stroke="hsl(228.5, 77.2%, 51.5%)" stroke-width="1.5"></path><path d="M532.58 685.14L405.69 500.33" stroke="hsl(228.5, 77.2%, 51.5%)" stroke-width="1.5"></path><path d="M966.52 561.97L966.52 561.97" stroke="hsl(228.5, 77.2%, 51.5%)" stroke-width="1.5"></path><path d="M966.52 561.97L841.75 523.8" stroke="hsl(228.5, 77.2%, 51.5%)" stroke-width="1.5"></path><path d="M966.52 561.97L1112.58 547.99" stroke="hsl(228.5, 77.2%, 51.5%)" stroke-width="1.5"></path><path d="M966.52 561.97L971.94 712.33" stroke="hsl(228.5, 77.2%, 51.5%)" stroke-width="1.5"></path><path d="M966.52 561.97L841.49 694.85" stroke="hsl(228.5, 77.2%, 51.5%)" stroke-width="1.5"></path><path d="M1419.88 361.71L1419.88 361.71" stroke="hsl(228.5, 77.2%, 51.5%)" stroke-width="1.5"></path><path d="M1419.88 361.71L1429.16 244.14" stroke="hsl(228.5, 77.2%, 51.5%)" stroke-width="1.5"></path><path d="M1419.88 361.71L1272.7 350.73" stroke="hsl(228.5, 77.2%, 51.5%)" stroke-width="1.5"></path><path d="M1444.5 711.16L1444.5 711.16" stroke="hsl(228.5, 77.2%, 51.5%)" stroke-width="1.5"></path><path d="M1444.5 711.16L1590.57 694.83" stroke="hsl(228.5, 77.2%, 51.5%)" stroke-width="1.5"></path><path d="M-99.69 661.09L-99.69 661.09" stroke="hsl(228.5, 77.2%, 51.5%)" stroke-width="1.5"></path><path d="M-99.69 661.09L49.3 644.95" stroke="hsl(228.5, 77.2%, 51.5%)" stroke-width="1.5"></path><path d="M-99.69 661.09L90.35 512.15" stroke="hsl(228.5, 77.2%, 51.5%)" stroke-width="1.5"></path><path d="M-99.69 661.09L213.61 526.34" stroke="hsl(228.5, 77.2%, 51.5%)" stroke-width="1.5"></path><path d="M-99.69 661.09L256.62 688.85" stroke="hsl(228.5, 77.2%, 51.5%)" stroke-width="1.5"></path><path d="M-99.69 661.09L402.94 712.45" stroke="hsl(228.5, 77.2%, 51.5%)" stroke-width="1.5"></path><path d="M90.35 512.15L90.35 512.15" stroke="hsl(228.5, 77.2%, 51.5%)" stroke-width="1.5"></path><path d="M90.35 512.15L213.61 526.34" stroke="hsl(228.5, 77.2%, 51.5%)" stroke-width="1.5"></path><path d="M90.35 512.15L49.3 644.95" stroke="hsl(228.5, 77.2%, 51.5%)" stroke-width="1.5"></path><path d="M90.35 512.15L256.62 688.85" stroke="hsl(228.5, 77.2%, 51.5%)" stroke-width="1.5"></path><path d="M90.35 512.15L405.69 500.33" stroke="hsl(228.5, 77.2%, 51.5%)" stroke-width="1.5"></path><path d="M49.3 644.95L49.3 644.95" stroke="hsl(228.5, 77.2%, 51.5%)" stroke-width="1.5"></path><path d="M213.61 526.34L213.61 526.34" stroke="hsl(228.5, 77.2%, 51.5%)" stroke-width="1.5"></path><path d="M213.61 526.34L256.62 688.85" stroke="hsl(228.5, 77.2%, 51.5%)" stroke-width="1.5"></path><path d="M256.62 688.85L256.62 688.85" stroke="hsl(228.5, 77.2%, 51.5%)" stroke-width="1.5"></path><path d="M256.62 688.85L402.94 712.45" stroke="hsl(228.5, 77.2%, 51.5%)" stroke-width="1.5"></path><path d="M256.62 688.85L49.3 644.95" stroke="hsl(228.5, 77.2%, 51.5%)" stroke-width="1.5"></path><path d="M256.62 688.85L405.69 500.33" stroke="hsl(228.5, 77.2%, 51.5%)" stroke-width="1.5"></path><path d="M405.69 500.33L405.69 500.33" stroke="hsl(228.5, 77.2%, 51.5%)" stroke-width="1.5"></path><path d="M405.69 500.33L560.51 397.18" stroke="hsl(228.5, 77.2%, 51.5%)" stroke-width="1.5"></path><path d="M405.69 500.33L213.61 526.34" stroke="hsl(228.5, 77.2%, 51.5%)" stroke-width="1.5"></path><path d="M405.69 500.33L402.94 712.45" stroke="hsl(228.5, 77.2%, 51.5%)" stroke-width="1.5"></path><path d="M402.94 712.45L402.94 712.45" stroke="hsl(228.5, 77.2%, 51.5%)" stroke-width="1.5"></path><path d="M402.94 712.45L213.61 526.34" stroke="hsl(228.5, 77.2%, 51.5%)" stroke-width="1.5"></path><path d="M402.94 712.45L691.05 706.22" stroke="hsl(228.5, 77.2%, 51.5%)" stroke-width="1.5"></path><path d="M560.51 397.18L560.51 397.18" stroke="hsl(228.5, 77.2%, 51.5%)" stroke-width="1.5"></path><path d="M560.51 397.18L670.61 518.03" stroke="hsl(228.5, 77.2%, 51.5%)" stroke-width="1.5"></path><path d="M560.51 397.18L804.13 373.25" stroke="hsl(228.5, 77.2%, 51.5%)" stroke-width="1.5"></path><path d="M560.51 397.18L532.58 685.14" stroke="hsl(228.5, 77.2%, 51.5%)" stroke-width="1.5"></path><path d="M560.51 397.18L841.75 523.8" stroke="hsl(228.5, 77.2%, 51.5%)" stroke-width="1.5"></path><path d="M670.61 518.03L670.61 518.03" stroke="hsl(228.5, 77.2%, 51.5%)" stroke-width="1.5"></path><path d="M670.61 518.03L841.75 523.8" stroke="hsl(228.5, 77.2%, 51.5%)" stroke-width="1.5"></path><path d="M670.61 518.03L691.05 706.22" stroke="hsl(228.5, 77.2%, 51.5%)" stroke-width="1.5"></path><path d="M670.61 518.03L804.13 373.25" stroke="hsl(228.5, 77.2%, 51.5%)" stroke-width="1.5"></path><path d="M691.05 706.22L691.05 706.22" stroke="hsl(228.5, 77.2%, 51.5%)" stroke-width="1.5"></path><path d="M691.05 706.22L841.49 694.85" stroke="hsl(228.5, 77.2%, 51.5%)" stroke-width="1.5"></path><path d="M691.05 706.22L841.75 523.8" stroke="hsl(228.5, 77.2%, 51.5%)" stroke-width="1.5"></path><path d="M691.05 706.22L971.94 712.33" stroke="hsl(228.5, 77.2%, 51.5%)" stroke-width="1.5"></path><path d="M804.13 373.25L804.13 373.25" stroke="hsl(228.5, 77.2%, 51.5%)" stroke-width="1.5"></path><path d="M804.13 373.25L841.75 523.8" stroke="hsl(228.5, 77.2%, 51.5%)" stroke-width="1.5"></path><path d="M804.13 373.25L970.6 337.68" stroke="hsl(228.5, 77.2%, 51.5%)" stroke-width="1.5"></path><path d="M804.13 373.25L966.52 561.97" stroke="hsl(228.5, 77.2%, 51.5%)" stroke-width="1.5"></path><path d="M841.75 523.8L841.75 523.8" stroke="hsl(228.5, 77.2%, 51.5%)" stroke-width="1.5"></path><path d="M841.75 523.8L841.49 694.85" stroke="hsl(228.5, 77.2%, 51.5%)" stroke-width="1.5"></path><path d="M841.75 523.8L970.6 337.68" stroke="hsl(228.5, 77.2%, 51.5%)" stroke-width="1.5"></path><path d="M841.75 523.8L971.94 712.33" stroke="hsl(228.5, 77.2%, 51.5%)" stroke-width="1.5"></path><path d="M841.49 694.85L841.49 694.85" stroke="hsl(228.5, 77.2%, 51.5%)" stroke-width="1.5"></path><path d="M841.49 694.85L971.94 712.33" stroke="hsl(228.5, 77.2%, 51.5%)" stroke-width="1.5"></path><path d="M841.49 694.85L670.61 518.03" stroke="hsl(228.5, 77.2%, 51.5%)" stroke-width="1.5"></path><path d="M970.6 337.68L970.6 337.68" stroke="hsl(228.5, 77.2%, 51.5%)" stroke-width="1.5"></path><path d="M970.6 337.68L1135.09 370.7" stroke="hsl(228.5, 77.2%, 51.5%)" stroke-width="1.5"></path><path d="M970.6 337.68L1103.47 223.36" stroke="hsl(228.5, 77.2%, 51.5%)" stroke-width="1.5"></path><path d="M970.6 337.68L966.52 561.97" stroke="hsl(228.5, 77.2%, 51.5%)" stroke-width="1.5"></path><path d="M971.94 712.33L971.94 712.33" stroke="hsl(228.5, 77.2%, 51.5%)" stroke-width="1.5"></path><path d="M971.94 712.33L1154.26 680.18" stroke="hsl(228.5, 77.2%, 51.5%)" stroke-width="1.5"></path><path d="M1103.47 223.36L1103.47 223.36" stroke="hsl(228.5, 77.2%, 51.5%)" stroke-width="1.5"></path><path d="M1103.47 223.36L1135.09 370.7" stroke="hsl(228.5, 77.2%, 51.5%)" stroke-width="1.5"></path><path d="M1135.09 370.7L1135.09 370.7" stroke="hsl(228.5, 77.2%, 51.5%)" stroke-width="1.5"></path><path d="M1135.09 370.7L1272.7 350.73" stroke="hsl(228.5, 77.2%, 51.5%)" stroke-width="1.5"></path><path d="M1112.58 547.99L1112.58 547.99" stroke="hsl(228.5, 77.2%, 51.5%)" stroke-width="1.5"></path><path d="M1112.58 547.99L1246.02 548.7" stroke="hsl(228.5, 77.2%, 51.5%)" stroke-width="1.5"></path><path d="M1112.58 547.99L1154.26 680.18" stroke="hsl(228.5, 77.2%, 51.5%)" stroke-width="1.5"></path><path d="M1154.26 680.18L1154.26 680.18" stroke="hsl(228.5, 77.2%, 51.5%)" stroke-width="1.5"></path><path d="M1154.26 680.18L1244.63 648.5" stroke="hsl(228.5, 77.2%, 51.5%)" stroke-width="1.5"></path><path d="M1154.26 680.18L1246.02 548.7" stroke="hsl(228.5, 77.2%, 51.5%)" stroke-width="1.5"></path><path d="M1266.09 -47.7L1266.09 -47.7" stroke="hsl(228.5, 77.2%, 51.5%)" stroke-width="1.5"></path><path d="M1266.09 -47.7L1279.1 107.08" stroke="hsl(228.5, 77.2%, 51.5%)" stroke-width="1.5"></path><path d="M1279.1 107.08L1279.1 107.08" stroke="hsl(228.5, 77.2%, 51.5%)" stroke-width="1.5"></path><path d="M1279.1 107.08L1283.49 225.96" stroke="hsl(228.5, 77.2%, 51.5%)" stroke-width="1.5"></path><path d="M1283.49 225.96L1283.49 225.96" stroke="hsl(228.5, 77.2%, 51.5%)" stroke-width="1.5"></path><path d="M1283.49 225.96L1272.7 350.73" stroke="hsl(228.5, 77.2%, 51.5%)" stroke-width="1.5"></path><path d="M1283.49 225.96L1429.16 244.14" stroke="hsl(228.5, 77.2%, 51.5%)" stroke-width="1.5"></path><path d="M1272.7 350.73L1272.7 350.73" stroke="hsl(228.5, 77.2%, 51.5%)" stroke-width="1.5"></path><path d="M1272.7 350.73L1429.16 244.14" stroke="hsl(228.5, 77.2%, 51.5%)" stroke-width="1.5"></path><path d="M1272.7 350.73L1246.02 548.7" stroke="hsl(228.5, 77.2%, 51.5%)" stroke-width="1.5"></path><path d="M1272.7 350.73L1103.47 223.36" stroke="hsl(228.5, 77.2%, 51.5%)" stroke-width="1.5"></path><path d="M1246.02 548.7L1246.02 548.7" stroke="hsl(228.5, 77.2%, 51.5%)" stroke-width="1.5"></path><path d="M1246.02 548.7L1244.63 648.5" stroke="hsl(228.5, 77.2%, 51.5%)" stroke-width="1.5"></path><path d="M1246.02 548.7L1444.7 546.25" stroke="hsl(228.5, 77.2%, 51.5%)" stroke-width="1.5"></path><path d="M1246.02 548.7L1135.09 370.7" stroke="hsl(228.5, 77.2%, 51.5%)" stroke-width="1.5"></path><path d="M1244.63 648.5L1244.63 648.5" stroke="hsl(228.5, 77.2%, 51.5%)" stroke-width="1.5"></path><path d="M1244.63 648.5L1112.58 547.99" stroke="hsl(228.5, 77.2%, 51.5%)" stroke-width="1.5"></path><path d="M1244.63 648.5L1444.5 711.16" stroke="hsl(228.5, 77.2%, 51.5%)" stroke-width="1.5"></path><path d="M1244.63 648.5L1444.7 546.25" stroke="hsl(228.5, 77.2%, 51.5%)" stroke-width="1.5"></path><path d="M1424.93 -56.35L1424.93 -56.35" stroke="hsl(228.5, 77.2%, 51.5%)" stroke-width="1.5"></path><path d="M1424.93 -56.35L1461.14 96.85" stroke="hsl(228.5, 77.2%, 51.5%)" stroke-width="1.5"></path><path d="M1424.93 -56.35L1266.09 -47.7" stroke="hsl(228.5, 77.2%, 51.5%)" stroke-width="1.5"></path><path d="M1424.93 -56.35L1590.27 -49.79" stroke="hsl(228.5, 77.2%, 51.5%)" stroke-width="1.5"></path><path d="M1424.93 -56.35L1587.39 64.69" stroke="hsl(228.5, 77.2%, 51.5%)" stroke-width="1.5"></path><path d="M1424.93 -56.35L1279.1 107.08" stroke="hsl(228.5, 77.2%, 51.5%)" stroke-width="1.5"></path><path d="M1424.93 -56.35L1541.16 196.35" stroke="hsl(228.5, 77.2%, 51.5%)" stroke-width="1.5"></path><path d="M1461.14 96.85L1461.14 96.85" stroke="hsl(228.5, 77.2%, 51.5%)" stroke-width="1.5"></path><path d="M1461.14 96.85L1541.16 196.35" stroke="hsl(228.5, 77.2%, 51.5%)" stroke-width="1.5"></path><path d="M1461.14 96.85L1587.39 64.69" stroke="hsl(228.5, 77.2%, 51.5%)" stroke-width="1.5"></path><path d="M1461.14 96.85L1429.16 244.14" stroke="hsl(228.5, 77.2%, 51.5%)" stroke-width="1.5"></path><path d="M1461.14 96.85L1279.1 107.08" stroke="hsl(228.5, 77.2%, 51.5%)" stroke-width="1.5"></path><path d="M1461.14 96.85L1590.27 -49.79" stroke="hsl(228.5, 77.2%, 51.5%)" stroke-width="1.5"></path><path d="M1429.16 244.14L1429.16 244.14" stroke="hsl(228.5, 77.2%, 51.5%)" stroke-width="1.5"></path><path d="M1444.7 546.25L1444.7 546.25" stroke="hsl(228.5, 77.2%, 51.5%)" stroke-width="1.5"></path><path d="M1444.7 546.25L1539.33 509.07" stroke="hsl(228.5, 77.2%, 51.5%)" stroke-width="1.5"></path><path d="M1444.7 546.25L1444.5 711.16" stroke="hsl(228.5, 77.2%, 51.5%)" stroke-width="1.5"></path><path d="M1444.7 546.25L1419.88 361.71" stroke="hsl(228.5, 77.2%, 51.5%)" stroke-width="1.5"></path><path d="M1444.7 546.25L1590.57 694.83" stroke="hsl(228.5, 77.2%, 51.5%)" stroke-width="1.5"></path><path d="M1590.27 -49.79L1590.27 -49.79" stroke="hsl(228.5, 77.2%, 51.5%)" stroke-width="1.5"></path><path d="M1590.27 -49.79L1587.39 64.69" stroke="hsl(228.5, 77.2%, 51.5%)" stroke-width="1.5"></path><path d="M1587.39 64.69L1587.39 64.69" stroke="hsl(228.5, 77.2%, 51.5%)" stroke-width="1.5"></path><path d="M1587.39 64.69L1541.16 196.35" stroke="hsl(228.5, 77.2%, 51.5%)" stroke-width="1.5"></path><path d="M1587.39 64.69L1429.16 244.14" stroke="hsl(228.5, 77.2%, 51.5%)" stroke-width="1.5"></path><path d="M1587.39 64.69L1279.1 107.08" stroke="hsl(228.5, 77.2%, 51.5%)" stroke-width="1.5"></path><path d="M1541.16 196.35L1541.16 196.35" stroke="hsl(228.5, 77.2%, 51.5%)" stroke-width="1.5"></path><path d="M1541.16 196.35L1429.16 244.14" stroke="hsl(228.5, 77.2%, 51.5%)" stroke-width="1.5"></path><path d="M1541.16 196.35L1419.88 361.71" stroke="hsl(228.5, 77.2%, 51.5%)" stroke-width="1.5"></path><path d="M1541.16 196.35L1590.27 -49.79" stroke="hsl(228.5, 77.2%, 51.5%)" stroke-width="1.5"></path><path d="M1539.33 509.07L1539.33 509.07" stroke="hsl(228.5, 77.2%, 51.5%)" stroke-width="1.5"></path><path d="M1539.33 509.07L1419.88 361.71" stroke="hsl(228.5, 77.2%, 51.5%)" stroke-width="1.5"></path><path d="M1539.33 509.07L1590.57 694.83" stroke="hsl(228.5, 77.2%, 51.5%)" stroke-width="1.5"></path><path d="M1539.33 509.07L1444.5 711.16" stroke="hsl(228.5, 77.2%, 51.5%)" stroke-width="1.5"></path><path d="M1590.57 694.83L1590.57 694.83" stroke="hsl(228.5, 77.2%, 51.5%)" stroke-width="1.5"></path><path d="M1590.57 694.83L1244.63 648.5" stroke="hsl(228.5, 77.2%, 51.5%)" stroke-width="1.5"></path><path d="M1590.57 694.83L1246.02 548.7" stroke="hsl(228.5, 77.2%, 51.5%)" stroke-width="1.5"></path><circle r="25" cx="532.58" cy="685.14" fill="url(#SvgjsRadialGradient1001)"></circle><circle r="25" cx="966.52" cy="561.97" fill="url(#SvgjsRadialGradient1001)"></circle><circle r="25" cx="1419.88" cy="361.71" fill="url(#SvgjsRadialGradient1001)"></circle><circle r="25" cx="1444.5" cy="711.16" fill="url(#SvgjsRadialGradient1001)"></circle><circle r="5" cx="-99.69" cy="661.09" fill="#8b9ad9"></circle><circle r="5" cx="90.35" cy="512.15" fill="#8b9ad9"></circle><circle r="5" cx="49.3" cy="644.95" fill="#8b9ad9"></circle><circle r="5" cx="213.61" cy="526.34" fill="#8b9ad9"></circle><circle r="5" cx="256.62" cy="688.85" fill="#8b9ad9"></circle><circle r="5" cx="405.69" cy="500.33" fill="#8b9ad9"></circle><circle r="5" cx="402.94" cy="712.45" fill="#8b9ad9"></circle><circle r="5" cx="560.51" cy="397.18" fill="#8b9ad9"></circle><circle r="5" cx="670.61" cy="518.03" fill="#8b9ad9"></circle><circle r="5" cx="691.05" cy="706.22" fill="#8b9ad9"></circle><circle r="5" cx="804.13" cy="373.25" fill="#8b9ad9"></circle><circle r="5" cx="841.75" cy="523.8" fill="#8b9ad9"></circle><circle r="5" cx="841.49" cy="694.85" fill="#8b9ad9"></circle><circle r="5" cx="970.6" cy="337.68" fill="#8b9ad9"></circle><circle r="5" cx="971.94" cy="712.33" fill="#8b9ad9"></circle><circle r="5" cx="1103.47" cy="223.36" fill="#8b9ad9"></circle><circle r="5" cx="1135.09" cy="370.7" fill="#8b9ad9"></circle><circle r="5" cx="1112.58" cy="547.99" fill="#8b9ad9"></circle><circle r="5" cx="1154.26" cy="680.18" fill="#8b9ad9"></circle><circle r="5" cx="1266.09" cy="-47.7" fill="#8b9ad9"></circle><circle r="5" cx="1279.1" cy="107.08" fill="#8b9ad9"></circle><circle r="5" cx="1283.49" cy="225.96" fill="#8b9ad9"></circle><circle r="5" cx="1272.7" cy="350.73" fill="#8b9ad9"></circle><circle r="5" cx="1246.02" cy="548.7" fill="#8b9ad9"></circle><circle r="5" cx="1244.63" cy="648.5" fill="#8b9ad9"></circle><circle r="5" cx="1424.93" cy="-56.35" fill="#8b9ad9"></circle><circle r="5" cx="1461.14" cy="96.85" fill="#8b9ad9"></circle><circle r="5" cx="1429.16" cy="244.14" fill="#8b9ad9"></circle><circle r="5" cx="1444.7" cy="546.25" fill="#8b9ad9"></circle><circle r="5" cx="1590.27" cy="-49.79" fill="#8b9ad9"></circle><circle r="5" cx="1587.39" cy="64.69" fill="#8b9ad9"></circle><circle r="5" cx="1541.16" cy="196.35" fill="#8b9ad9"></circle><circle r="5" cx="1539.33" cy="509.07" fill="#8b9ad9"></circle><circle r="5" cx="1590.57" cy="694.83" fill="#8b9ad9"></circle></g><defs><mask id="SvgjsMask1000"><rect width="1440" height="560" fill="#ffffff"></rect></mask><radialGradient id="SvgjsRadialGradient1001"><stop stop-color="#ffffff" offset="0.1"></stop><stop stop-color="#1735b3" offset="0.2"></stop><stop stop-color="rgba(23, 53, 179, 0)" offset="1"></stop></radialGradient></defs></svg>